<svg width="1440" height="192" viewBox="0 0 1440 192" fill="none" xmlns="http://www.w3.org/2000/svg">
<path d="M2232.2 113.047L2128.49 122.227C2024.75 131.569 1817.33 149.929 1609.81 168.937C1402.3 187.944 1194.69 207.6 995.065 169.926C795.435 132.253 603.78 37.2499 407.709 -26.0112C211.639 -89.2724 11.1975 -121.116 -89.0454 -136.876L-189.266 -152.798L-131.372 -569L-30.8807 -555.022C69.61 -541.043 270.592 -513.086 471.573 -485.13C672.555 -457.173 873.536 -429.216 1074.52 -401.259C1275.5 -373.302 1476.48 -345.345 1677.46 -317.389C1878.44 -289.432 2079.43 -261.475 2179.92 -247.496L2280.41 -233.518L2232.2 113.047Z" fill="#69F2D9" fill-opacity="0.11"/>
</svg>
