<svg width="1440" height="190" viewBox="0 0 1440 190" fill="none" xmlns="http://www.w3.org/2000/svg">
<path d="M2144.2 111.047L2040.49 120.227C1936.75 129.569 1729.33 147.929 1521.81 166.937C1314.3 185.944 1106.69 205.6 907.065 167.926C707.435 130.253 515.78 35.2499 319.709 -28.0112C123.639 -91.2724 -76.8025 -123.116 -177.045 -138.876L-277.266 -154.798L-219.372 -571L-118.881 -557.022C-18.39 -543.043 182.592 -515.086 383.573 -487.13C584.555 -459.173 785.536 -431.216 986.518 -403.259C1187.5 -375.302 1388.48 -347.345 1589.46 -319.389C1790.44 -291.432 1991.43 -263.475 2091.92 -249.496L2192.41 -235.518L2144.2 111.047Z" fill="#69F2D9" fill-opacity="0.11"/>
</svg>
